<svg width="230" height="187" viewBox="0 0 230 187" fill="none" xmlns="http://www.w3.org/2000/svg">
<g clip-path="url(#clip0_634_1801)">
<path d="M3.78289 0.600037H0V184.937H3.78289V0.600037Z" fill="white"/>
<path d="M60.5278 105.093H64.3106V109.781H60.5278V105.093ZM60.5278 137.454H64.3106V114.015H60.5278V137.454ZM97.1462 105.093H93.3633V109.781H97.1462V105.093ZM97.1462 114.015H93.3633V137.454H97.1462V114.015ZM43.5804 173.293C43.5804 180.098 39.6462 185.542 32.2317 185.542C24.8172 185.542 20.883 180.098 20.883 173.293C20.883 166.488 24.8172 161.044 32.2317 161.044C39.6462 161.044 43.5804 166.488 43.5804 173.293ZM39.4949 173.293C39.4949 167.546 36.1659 164.371 32.2317 164.371C28.2975 164.371 24.9685 167.546 24.9685 173.293C24.9685 178.888 28.2975 182.063 32.2317 182.063C36.1659 182.063 39.4949 179.039 39.4949 173.293ZM99.1133 168C99.1133 178.888 94.4225 184.937 83.5278 184.937H72.4817V152.576H83.5278C93.5146 152.727 99.1133 157.717 99.1133 168ZM94.7251 168.605C94.7251 160.893 91.8501 156.205 83.9817 156.205H76.7185V181.307H83.8304C86.8567 181.307 94.7251 180.551 94.7251 168.605ZM123.172 174.502H105.62C105.469 178.585 107.738 182.215 112.883 182.215C116.061 182.215 118.33 180.702 118.936 177.678H122.719C121.659 182.82 118.028 185.693 112.732 185.693C105.317 185.693 101.686 180.551 101.534 173.444C101.534 166.488 106.225 161.195 112.58 161.195C120.751 161.044 123.324 168.756 123.172 174.502ZM119.087 171.024C118.936 167.395 116.212 164.371 112.278 164.371C108.192 164.371 105.922 167.395 105.62 171.024H119.087ZM158.126 174.502H140.574C140.422 178.585 142.692 182.215 147.837 182.215C151.015 182.215 153.284 180.702 153.89 177.678H157.672C156.613 182.82 152.982 185.693 147.686 185.693C140.271 185.693 136.64 180.551 136.488 173.444C136.488 166.488 141.179 161.195 147.534 161.195C155.857 161.044 158.278 168.756 158.126 174.502ZM154.041 171.024C153.89 167.395 151.166 164.371 147.232 164.371C143.146 164.371 140.876 167.395 140.574 171.024H154.041ZM229.094 174.502H211.541C211.39 178.585 213.659 182.215 218.804 182.215C221.982 182.215 224.251 180.702 224.857 177.678H228.64C227.58 182.82 223.949 185.693 218.653 185.693C211.238 185.693 207.607 180.551 207.455 173.444C207.455 166.488 212.146 161.195 218.501 161.195C226.824 161.044 229.396 168.756 229.094 174.502ZM225.008 171.024C224.857 167.395 222.133 164.371 218.199 164.371C214.113 164.371 211.844 167.395 211.541 171.024H225.008ZM125.14 132.312C125.14 136.546 126.653 137.454 130.738 137.454H133.613V134.127H131.797C129.376 134.127 128.922 133.824 128.922 132.01V117.493H133.613V114.015H128.922V107.059H125.14V114.015H121.205V117.341H125.14V132.312ZM26.9356 110.537L37.0738 137.454H40.8567L50.9949 110.537H51.1462V137.454H55.2317V105.093H49.3304L39.0409 132.312L28.9028 105.093H23.0014V137.454H27.087V110.537H26.9356ZM140.271 127.02C140.271 121.122 142.541 117.493 148.745 117.493V113.41C144.508 113.259 141.936 115.073 140.12 118.854H139.969V114.015H136.337V137.454H140.12V127.02H140.271ZM172.653 161.044C169.324 161.044 166.751 162.405 165.087 165.278H164.936V161.498H161.304V184.937H165.087V171.781C165.087 167.546 167.357 164.522 172.047 164.522C174.922 164.522 176.738 166.337 176.738 169.21V185.088H180.521V169.663C180.672 164.522 178.705 161.044 172.653 161.044ZM171.594 114.015H167.508L161.001 133.22H160.85L154.041 114.015H149.653L158.883 137.302L157.37 141.234C156.613 142.595 155.857 143.351 154.192 143.351C153.436 143.351 152.679 143.049 151.922 142.746V146.224C152.83 146.527 153.738 146.678 154.646 146.678C158.126 146.678 159.64 145.015 161.455 140.478L171.594 114.015ZM127.561 158.171V161.649H123.626V164.976H127.561V184.937H131.344V164.976H135.883V161.649H131.344V158.322C131.344 156.356 132.403 155.751 134.219 155.751C134.824 155.751 135.732 155.902 136.337 156.054V152.727C135.58 152.576 134.521 152.424 133.916 152.424C129.83 152.273 127.561 154.239 127.561 158.171ZM48.2712 158.171V161.649H44.337V164.976H48.2712V184.937H52.0541V164.976H56.5935V161.649H52.0541V158.322C52.0541 156.356 53.1133 155.751 54.9291 155.751C55.5343 155.751 56.4422 155.902 57.0475 156.054V152.727C56.2909 152.576 55.2317 152.424 54.6264 152.424C50.5409 152.273 48.2712 154.239 48.2712 158.171ZM195.047 182.215C190.205 182.215 188.238 177.981 188.238 173.595C188.238 168.907 189.903 164.522 195.501 164.522C198.679 164.522 200.646 166.185 201.251 169.21H205.186C204.58 163.615 200.344 161.195 195.047 161.195C187.633 161.195 184.001 166.79 184.001 173.746C184.001 180.702 187.784 185.693 194.896 185.693C200.797 185.693 204.429 182.366 205.186 176.62H201.251C200.949 179.946 198.679 182.215 195.047 182.215ZM72.9357 124.298C72.9357 120.063 75.2054 117.039 79.8962 117.039C82.7712 117.039 84.587 118.854 84.587 121.727V137.605H88.3699V122.029C88.3699 117.039 86.4028 113.41 80.3501 113.41C77.0212 113.41 74.2975 114.771 72.7843 117.644H72.633V114.015H69.0014V137.454H72.7843V124.298H72.9357ZM110.613 134.581C107.436 134.581 104.409 133.522 104.258 130.044H100.475C100.778 135.79 105.166 137.907 110.462 137.907C115.153 137.907 120.449 136.093 120.449 130.498C120.449 125.961 116.666 124.751 112.732 123.844C109.1 122.937 105.015 122.483 105.015 119.761C105.015 117.342 107.738 116.737 110.008 116.737C112.58 116.737 115.153 117.644 115.455 120.668H119.238C118.936 114.922 114.85 113.41 109.705 113.41C105.62 113.41 100.929 115.376 100.929 120.063C100.929 124.6 104.712 125.81 108.646 126.717C112.429 127.624 116.363 128.078 116.363 131.102C116.212 134.127 113.034 134.581 110.613 134.581ZM40.7054 23.283C41.008 23.283 41.3106 23.1317 41.462 22.9805C41.1593 22.6781 41.3106 22.2244 41.462 21.922C41.462 21.922 41.462 21.922 41.6133 21.922C41.6133 22.0732 41.6133 22.2244 41.7646 22.2244H41.9159C42.0672 22.2244 42.0672 22.2244 42.2185 22.0732C42.2185 21.922 42.3699 21.7708 42.3699 21.7708C42.3699 21.6195 42.3699 21.6195 42.3699 21.4683H42.0672C41.9159 21.4683 41.9159 21.3171 41.9159 21.1659C41.9159 21.0147 41.9159 20.8635 42.0672 20.8635H42.3699C42.3699 20.8635 42.3699 20.7122 42.2185 20.561C42.0672 20.4098 41.9159 20.1074 41.7646 20.1074C41.6133 20.1074 41.462 20.1074 41.462 20.2586C41.3106 20.4098 41.3106 20.561 41.3106 20.7122V20.8635H41.1593C41.008 20.8635 40.8567 20.8635 40.7054 20.7122C40.5541 20.561 40.4028 20.4098 40.4028 20.2586V20.1074C40.2514 19.6537 40.4028 19.0488 40.7054 18.7464C40.8567 18.5952 41.008 18.4439 41.3106 18.4439C41.6133 18.4439 41.7646 18.5952 41.9159 18.7464C42.2185 19.0488 42.3699 19.3513 42.5212 19.6537C42.5212 19.8049 42.6725 19.9561 42.6725 20.2586C42.6725 20.4098 42.6725 20.4098 42.6725 20.561H42.8238C42.8238 20.4098 42.8238 20.4098 42.8238 20.2586C42.8238 20.1074 42.6725 19.9561 42.6725 19.6537C42.5212 19.2 42.3699 18.8976 42.0672 18.4439C41.9159 18.1415 41.9159 17.8391 41.7646 17.6878C41.7646 17.3854 41.7646 17.2342 41.9159 16.9317C42.0672 16.6293 42.5212 15.1171 42.5212 15.1171C42.5212 15.1171 43.4291 16.3269 43.5804 16.4781C43.7317 16.6293 43.883 16.9317 43.883 17.2342C43.883 17.5366 43.883 17.8391 43.883 18.1415C43.7317 18.5952 43.7317 19.0488 43.5804 19.5025C43.5804 19.6537 43.5804 19.9561 43.5804 20.1074C43.5804 20.2586 43.5804 20.2586 43.5804 20.4098H43.7317C43.7317 20.2586 43.7317 20.2586 43.7317 20.1074C43.7317 19.9561 43.7317 19.6537 43.7317 19.5025C43.7317 19.0488 43.883 18.5952 44.0343 18.2927C44.1856 17.9903 44.337 17.8391 44.6396 17.6878C44.7909 17.6878 44.9422 17.5366 44.9422 17.5366C45.0935 17.5366 45.0935 17.5366 45.2449 17.5366C45.6988 17.6878 45.8501 18.1415 45.8501 18.5952V18.7464C45.8501 19.0488 45.6988 19.2 45.5475 19.3513C45.5475 19.5025 45.2449 19.6537 45.0935 19.6537V19.5025C45.0935 19.3513 44.9422 19.2 44.9422 19.2H44.7909H44.6396C44.337 19.3513 44.337 19.5025 44.1857 19.8049C44.1857 19.9561 44.1857 20.1074 44.1857 20.1074H44.337C44.4883 20.1074 44.4883 20.2586 44.4883 20.4098C44.4883 20.561 44.4883 20.7122 44.337 20.7122H44.1857C44.1857 20.7122 44.1856 20.8635 44.337 21.0147C44.337 21.1659 44.4883 21.3171 44.4883 21.3171H44.6396C44.7909 21.3171 44.7909 21.3171 44.9422 21.1659C45.0935 21.0147 45.0935 20.8635 44.9422 20.7122C45.2449 20.8635 45.3962 21.1659 45.0935 21.6195C45.2449 21.6195 45.5475 21.7708 45.8501 21.7708C46.0014 21.7708 46.1528 21.7708 46.3041 21.7708C47.8172 21.6195 48.7251 20.1074 49.0278 19.3513C49.1791 19.3513 49.3304 19.5025 49.4817 19.5025C49.633 19.5025 49.633 19.5025 49.7843 19.5025C49.9357 19.5025 49.9356 19.5025 50.087 19.3513C50.3896 20.1074 51.2975 21.4683 52.8107 21.7708C52.962 21.7708 53.1133 21.7708 53.2646 21.7708C53.5672 21.7708 53.7185 21.7708 54.0212 21.6195C53.7185 21.1659 53.8699 20.8635 54.1725 20.7122C54.1725 20.8635 54.1725 21.0147 54.1725 21.1659C54.1725 21.3171 54.3238 21.3171 54.4751 21.3171H54.6264C54.7778 21.3171 54.7778 21.1659 54.7778 21.0147C54.7778 20.8635 54.7778 20.8635 54.9291 20.7122H54.7778C54.6264 20.7122 54.6264 20.561 54.6264 20.4098C54.6264 20.2586 54.7778 20.1074 54.7778 20.1074H54.9291C54.9291 20.1074 54.9291 19.9561 54.9291 19.8049C54.9291 19.5025 54.7778 19.3513 54.4751 19.2H54.3238H54.1725C54.0212 19.2 54.0212 19.3513 54.0212 19.5025V19.6537C53.8699 19.6537 53.7185 19.5025 53.5672 19.3513C53.4159 19.2 53.4159 18.8976 53.2646 18.7464V18.5952C53.2646 18.1415 53.5672 17.6878 53.8699 17.5366C54.0212 17.5366 54.0212 17.5366 54.1725 17.5366C54.3238 17.5366 54.4751 17.5366 54.4751 17.6878C54.6264 17.8391 54.9291 17.9903 55.0804 18.2927C55.2317 18.5952 55.383 19.0488 55.383 19.5025C55.383 19.6537 55.383 19.9561 55.383 20.1074C55.383 20.2586 55.383 20.2586 55.383 20.4098H55.5343C55.5343 20.2586 55.5343 20.2586 55.5343 20.1074C55.5343 19.9561 55.5343 19.6537 55.5343 19.5025C55.5343 19.0488 55.383 18.5952 55.2317 18.1415C55.2317 17.8391 55.0804 17.5366 55.2317 17.2342C55.2317 16.9317 55.383 16.7805 55.5343 16.4781C55.6857 16.1756 56.5935 15.1171 56.5935 15.1171C56.5935 15.1171 57.1988 16.6293 57.1988 16.9317C57.1988 17.2342 57.3501 17.3854 57.3501 17.6878C57.3501 17.9903 57.1988 18.2927 57.0475 18.4439C56.8962 18.8976 56.5935 19.2 56.4422 19.6537C56.4422 19.8049 56.2909 19.9561 56.2909 20.2586C56.2909 20.4098 56.2909 20.4098 56.2909 20.561H56.4422C56.4422 20.4098 56.4422 20.4098 56.4422 20.2586C56.4422 20.1074 56.5935 19.9561 56.5935 19.6537C56.7449 19.3513 56.8962 18.8976 57.1988 18.7464C57.3501 18.5952 57.6528 18.4439 57.8041 18.4439C57.9554 18.4439 58.258 18.5952 58.4093 18.7464C58.712 19.0488 58.8633 19.6537 58.712 20.1074V20.2586C58.5606 20.4098 58.5606 20.561 58.4093 20.7122C58.258 20.7122 58.1067 20.8635 57.9554 20.8635H57.8041V20.7122C57.8041 20.561 57.8041 20.4098 57.6528 20.2586C57.8041 20.4098 57.6528 20.2586 57.5014 20.2586C57.1988 20.2586 57.0475 20.4098 57.0475 20.7122C57.0475 20.8635 56.8962 20.8635 56.8962 21.0147H57.1988C57.3501 21.0147 57.3501 21.1659 57.3501 21.3171C57.3501 21.4683 57.1988 21.6195 57.1988 21.6195H56.8962C56.8962 21.6195 56.8962 21.7708 56.8962 21.922C56.8962 22.0732 56.8962 22.2244 57.0475 22.2244C57.0475 22.3756 57.1988 22.3756 57.3501 22.3756H57.5014C57.6528 22.3756 57.6528 22.2244 57.6528 22.0732C57.6528 22.0732 57.6528 22.0732 57.8041 22.0732C57.9554 22.3756 58.1067 22.8293 57.8041 23.1317C58.1067 23.283 58.258 23.4342 58.5607 23.4342C58.5607 23.4342 58.5606 23.4342 58.712 23.4342C59.7712 23.4342 60.9817 22.3756 61.4356 21.7708C61.587 21.922 61.8896 22.0732 62.1922 22.2244L60.9817 28.2732C57.3501 26.9122 53.7185 26.1561 49.7843 26.1561C46.0014 26.1561 42.2185 26.9122 38.587 28.2732L37.3764 22.2244C37.6791 22.2244 37.8304 22.0732 38.133 21.7708C38.4356 22.2244 39.6462 23.283 40.7054 23.283ZM60.8304 28.8781C60.6791 28.8781 60.6791 28.8781 60.6791 28.7269C57.1988 27.3659 53.4159 26.6098 49.633 26.6098C45.8501 26.6098 42.0672 27.3659 38.587 28.7269H38.4356C38.4356 28.7269 38.2843 28.7269 38.2843 28.8781C37.8304 29.1805 37.5278 29.7854 37.8304 30.3903C37.9817 30.8439 38.4356 31.1464 38.8896 31.1464C39.0409 31.1464 39.1922 31.1464 39.3435 30.9952C42.6725 29.6342 46.1528 29.0293 49.633 29.0293C53.2646 29.0293 56.5935 29.6342 59.9225 30.9952C60.0738 30.9952 60.2251 31.1464 60.3764 31.1464C60.8304 31.1464 61.2843 30.8439 61.4356 30.3903C61.7383 29.7854 61.4356 29.1805 60.9817 28.8781C60.9817 29.0293 60.8304 28.8781 60.8304 28.8781ZM30.8699 37.6488C33.2909 35.2293 36.1659 33.2634 39.1922 32.0537C42.3699 30.6927 45.8501 29.9366 49.4817 29.9366C53.1133 29.9366 56.4422 30.6927 59.7712 32.0537C62.9488 33.4147 65.6725 35.2293 68.0935 37.6488C70.5146 40.0683 72.4817 42.9415 73.6922 45.9659C75.0541 49.1415 75.8106 52.6195 75.8106 56.2488C75.8106 59.8781 75.0541 63.2049 73.6922 66.5317C72.3304 69.7074 70.5146 72.4293 68.0935 74.8488C65.6725 77.2683 62.7975 79.2342 59.7712 80.4439C56.5935 81.8049 53.1133 82.561 49.4817 82.561C45.8501 82.561 42.5212 81.8049 39.1922 80.4439C36.0146 79.083 33.2909 77.2683 30.8699 74.8488C28.4488 72.4293 26.4817 69.5561 25.2712 66.5317C23.9093 63.3561 23.1528 59.8781 23.1528 56.2488C23.1528 52.6195 23.9093 49.2927 25.2712 45.9659C26.633 42.9415 28.4488 40.0683 30.8699 37.6488ZM24.6659 50.2C24.6659 50.3513 24.6659 50.3513 24.6659 50.5025V50.6537C24.212 52.4683 24.0606 54.283 24.0606 56.2488C24.0606 70.3122 35.5606 81.8049 49.633 81.8049C63.7054 81.8049 75.2054 70.3122 75.2054 56.2488C75.2054 42.1854 63.7054 30.6927 49.633 30.6927C37.5278 30.6927 27.3896 39.0098 24.6659 50.2ZM48.2712 86.6439C48.2712 88.3074 49.633 89.8195 49.633 89.8195C49.633 89.8195 50.9949 88.4586 50.9949 86.6439C50.9949 84.9805 49.633 83.4683 49.633 83.4683C49.633 83.4683 48.2712 84.9805 48.2712 86.6439ZM45.2449 83.922C43.7317 84.6781 43.1264 86.6439 43.1264 86.6439C43.1264 86.6439 44.9422 87.0976 46.4554 86.3415C47.9685 85.5854 48.5738 83.6196 48.5738 83.6196C48.5738 83.6196 46.758 83.0147 45.2449 83.922ZM44.6396 83.0147C44.6396 83.0147 42.8238 82.2586 41.3106 82.8635C39.6462 83.4683 38.8896 85.1317 38.8896 85.1317C38.8896 85.1317 40.7054 85.8878 42.2185 85.283C43.7317 84.8293 44.6396 83.0147 44.6396 83.0147ZM40.8567 82.1074C40.8567 82.1074 39.1922 81.0488 37.5278 81.5025C35.8633 81.8049 34.6528 83.4683 34.6528 83.4683C34.6528 83.4683 36.3172 84.5269 37.9817 84.0732C39.6462 83.6195 40.8567 82.1074 40.8567 82.1074ZM37.0738 80.5952C37.0738 80.5952 35.5606 79.3854 33.8962 79.5366C32.2317 79.6878 30.8699 81.0488 30.8699 81.0488C30.8699 81.0488 32.383 82.2586 34.0475 82.1074C35.8633 81.9561 37.0738 80.5952 37.0738 80.5952ZM30.7185 76.9659C29.0541 76.8147 27.5409 78.0244 27.5409 78.0244C27.5409 78.0244 28.9028 79.3854 30.5672 79.5366C32.2317 79.6878 33.7449 78.4781 33.7449 78.4781C33.7449 78.4781 32.5343 77.1171 30.7185 76.9659ZM30.7185 75.9074C30.7185 75.9074 29.6593 74.2439 27.9949 73.9415C26.3304 73.4878 24.6659 74.5464 24.6659 74.5464C24.6659 74.5464 25.7251 76.2098 27.3896 76.5122C29.0541 76.9659 30.7185 75.9074 30.7185 75.9074ZM27.9949 73.0342C27.9949 73.0342 27.2383 71.3708 25.5738 70.6147C23.9093 70.0098 22.2449 70.6147 22.2449 70.6147C22.2449 70.6147 23.0014 72.2781 24.6659 73.0342C26.3304 73.6391 27.9949 73.0342 27.9949 73.0342ZM25.8764 69.7074C25.8764 69.7074 25.2712 67.8927 23.758 66.9854C22.2449 66.0781 20.4291 66.5317 20.4291 66.5317C20.4291 66.5317 21.0343 68.3464 22.5475 69.2537C24.0606 70.161 25.8764 69.7074 25.8764 69.7074ZM20.883 65.1708C22.2449 66.2293 24.212 66.0781 24.212 66.0781C24.212 66.0781 23.9093 64.1122 22.5475 63.0537C21.1856 61.9952 19.2185 62.1464 19.2185 62.1464C19.2185 62.1464 19.5212 64.1122 20.883 65.1708ZM23.0014 62.2976C23.0014 62.2976 23.0014 60.3317 21.7909 59.122C20.5804 57.9122 18.6133 57.761 18.6133 57.761C18.6133 57.761 18.6133 59.7269 19.8238 60.9366C21.0343 62.2976 23.0014 62.2976 23.0014 62.2976ZM22.3962 58.3659C22.3962 58.3659 22.6988 56.4 21.6396 55.0391C20.5804 53.6781 18.7646 53.2244 18.7646 53.2244C18.7646 53.2244 18.462 55.1903 19.5212 56.5513C20.5804 58.0635 22.3962 58.3659 22.3962 58.3659ZM22.3962 54.4342C22.3962 54.4342 23.0014 52.6196 22.0935 51.1074C21.337 49.5952 19.5212 48.8391 19.5212 48.8391C19.5212 48.8391 19.0672 50.6537 19.8238 52.1659C20.5804 53.8293 22.3962 54.4342 22.3962 54.4342ZM23.0014 50.5025C23.0014 50.5025 23.758 48.6878 23.3041 47.1756C22.6988 45.5122 21.0343 44.6049 21.0343 44.6049C21.0343 44.6049 20.2778 46.4195 20.7317 47.9317C21.1856 49.5952 23.0014 50.5025 23.0014 50.5025ZM24.0606 46.722C24.0606 46.722 25.1199 45.0586 24.8172 43.3952C24.5146 41.7317 23.0014 40.522 23.0014 40.522C23.0014 40.522 21.9422 42.1854 22.2449 43.8488C22.5475 45.6635 24.0606 46.722 24.0606 46.722ZM26.9356 39.9171C26.9356 38.2537 25.5738 36.8927 25.5738 36.8927C25.5738 36.8927 24.3633 38.4049 24.3633 40.0683C24.3633 41.7317 25.7251 43.0927 25.7251 43.0927C25.7251 43.0927 26.9356 41.7317 26.9356 39.9171ZM29.508 36.8927C29.6593 35.2293 28.6001 33.5659 28.6001 33.5659C28.6001 33.5659 27.087 34.7756 26.9356 36.5903C26.7843 38.2537 27.8435 39.9171 27.8435 39.9171C27.8435 39.9171 29.3567 38.5561 29.508 36.8927ZM32.5343 34.1708C32.9883 32.5074 32.0804 30.8439 32.0804 30.8439C32.0804 30.8439 30.4159 31.9025 29.962 33.5659C29.508 35.2293 30.4159 36.8927 30.4159 36.8927C30.4159 36.8927 32.0804 35.8342 32.5343 34.1708ZM33.5935 30.8439C32.837 32.5074 33.5935 34.1708 33.5935 34.1708C33.5935 34.1708 35.4093 33.4147 36.0146 31.7513C36.7712 30.0878 36.0146 28.4244 36.0146 28.4244C36.0146 28.4244 34.1988 29.3317 33.5935 30.8439ZM53.8699 83.922C52.3567 83.1659 50.5409 83.6196 50.5409 83.6196C50.5409 83.6196 51.1462 85.4342 52.6593 86.3415C54.1725 87.0976 55.9883 86.6439 55.9883 86.6439C55.9883 86.6439 55.383 84.6781 53.8699 83.922ZM57.9554 82.8635C56.2909 82.2586 54.4751 83.0147 54.4751 83.0147C54.4751 83.0147 55.383 84.6781 56.8962 85.283C58.5606 85.8878 60.2251 85.1317 60.2251 85.1317C60.2251 85.1317 59.4685 83.4683 57.9554 82.8635ZM61.7383 81.5025C60.0738 81.2 58.4093 82.1074 58.4093 82.1074C58.4093 82.1074 59.4685 83.6195 61.2843 84.0732C62.9488 84.3756 64.6133 83.4683 64.6133 83.4683C64.6133 83.4683 63.4028 81.8049 61.7383 81.5025ZM62.0409 80.5952C62.0409 80.5952 63.4028 81.9561 65.0672 82.1074C66.7317 82.2586 68.2449 81.0488 68.2449 81.0488C68.2449 81.0488 66.883 79.6878 65.2185 79.5366C63.4028 79.3854 62.0409 80.5952 62.0409 80.5952ZM65.3699 78.4781C65.3699 78.4781 66.883 79.6878 68.5475 79.5366C70.212 79.3854 71.5738 78.0244 71.5738 78.0244C71.5738 78.0244 70.0607 76.8147 68.3962 76.9659C66.5804 77.1171 65.3699 78.4781 65.3699 78.4781ZM71.1199 73.9415C69.4554 74.3952 68.3962 75.9074 68.3962 75.9074C68.3962 75.9074 70.0607 76.8147 71.7251 76.5122C73.3896 76.0586 74.4488 74.5464 74.4488 74.5464C74.4488 74.5464 72.9356 73.6391 71.1199 73.9415ZM73.5409 70.6147C71.8764 71.2195 71.1199 73.0342 71.1199 73.0342C71.1199 73.0342 72.9357 73.7903 74.4488 73.0342C76.1133 72.4293 76.8699 70.6147 76.8699 70.6147C76.8699 70.6147 75.0541 70.0098 73.5409 70.6147ZM75.3567 66.9854C73.8435 67.8927 73.2383 69.7074 73.2383 69.7074C73.2383 69.7074 75.0541 70.161 76.5672 69.2537C78.0804 68.3464 78.6856 66.5317 78.6856 66.5317C78.6856 66.5317 76.8699 66.2293 75.3567 66.9854ZM76.5672 63.2049C75.2054 64.2635 74.9028 66.2293 74.9028 66.2293C74.9028 66.2293 76.8699 66.3805 78.2317 65.322C79.5935 64.2634 79.8962 62.2976 79.8962 62.2976C79.8962 62.2976 77.9291 62.1464 76.5672 63.2049ZM76.1133 62.2976C76.1133 62.2976 78.0804 62.1464 79.2909 60.9366C80.5014 59.7269 80.5014 57.761 80.5014 57.761C80.5014 57.761 78.5343 57.9122 77.3238 59.122C76.1133 60.483 76.1133 62.2976 76.1133 62.2976ZM77.4751 55.1903C76.4159 56.5513 76.7185 58.5171 76.7185 58.5171C76.7185 58.5171 78.5343 58.0634 79.5935 56.7025C80.6528 55.3415 80.3501 53.3756 80.3501 53.3756C80.3501 53.3756 78.383 53.6781 77.4751 55.1903ZM77.0212 51.1074C76.2646 52.6196 76.7185 54.4342 76.7185 54.4342C76.7185 54.4342 78.5343 53.8293 79.2909 52.1659C80.0475 50.6537 79.5935 48.8391 79.5935 48.8391C79.5935 48.8391 77.7778 49.5952 77.0212 51.1074ZM75.962 47.1756C75.3567 48.8391 76.2646 50.5025 76.2646 50.5025C76.2646 50.5025 77.9291 49.5952 78.5343 47.9317C79.1396 46.2683 78.2317 44.6049 78.2317 44.6049C78.2317 44.6049 76.5672 45.5122 75.962 47.1756ZM75.0541 46.722C75.0541 46.722 76.5672 45.5122 76.8699 43.8488C77.1725 42.1854 76.1133 40.522 76.1133 40.522C76.1133 40.522 74.6001 41.7317 74.2975 43.3952C73.9949 45.2098 75.0541 46.722 75.0541 46.722ZM73.3896 43.0927C73.3896 43.0927 74.7514 41.7317 74.7514 40.0683C74.7514 38.4049 73.5409 36.8927 73.5409 36.8927C73.5409 36.8927 72.1791 38.2537 72.1791 39.9171C72.1791 41.7317 73.3896 43.0927 73.3896 43.0927ZM71.2712 39.7659C71.2712 39.7659 72.4817 38.2537 72.1791 36.4391C72.0278 34.7756 70.5146 33.4147 70.5146 33.4147C70.5146 33.4147 69.3041 34.9269 69.6067 36.7415C69.758 38.5561 71.2712 39.7659 71.2712 39.7659ZM68.6988 36.8927C68.6988 36.8927 69.6067 35.2293 69.1528 33.5659C68.6988 31.9025 67.0343 30.8439 67.0343 30.8439C67.0343 30.8439 66.1264 32.5074 66.5804 34.1708C67.0343 35.8342 68.6988 36.8927 68.6988 36.8927ZM63.1001 31.9025C63.8567 33.5659 65.5212 34.322 65.5212 34.322C65.5212 34.322 66.1264 32.5074 65.5212 30.9952C64.7646 29.3317 63.1001 28.5756 63.1001 28.5756C63.1001 28.5756 62.4949 30.3903 63.1001 31.9025ZM62.4949 68.3464C62.6462 69.8586 62.3435 70.9171 62.3435 70.9171C62.3435 70.9171 61.587 70.3122 60.3764 69.8586C60.3764 70.0098 60.3764 70.161 60.2251 70.6147C60.2251 70.9171 60.0738 71.2196 59.9225 71.522C59.7712 71.9756 59.6199 72.2781 59.4685 72.7317C59.3172 73.0342 59.1659 73.4878 59.0146 73.7903C59.0146 73.9415 58.8633 73.9415 58.8633 74.0927C58.712 74.2439 58.712 74.3952 58.5607 74.5464L58.4093 74.6976C57.8041 74.6976 57.6528 74.6976 57.5014 74.8488L57.3501 75C56.8962 75.4537 56.1396 76.0586 55.0804 76.8147C54.0212 77.5708 52.6593 78.4781 51.6001 79.083C50.2383 80.1415 49.4817 80.8976 49.4817 80.8976C49.4817 80.8976 48.7251 80.1415 47.3633 79.083C46.3041 78.3269 45.0935 77.5708 43.883 76.8147C42.9751 76.2098 42.0672 75.4537 41.6133 75C41.462 74.8488 41.3106 74.6976 41.1593 74.5464C39.7975 72.883 39.1922 69.8586 39.1922 69.5561C37.9817 70.161 37.2251 70.6147 37.2251 70.6147C37.2251 70.6147 36.9225 69.5561 37.0738 68.0439C37.2251 66.5317 37.8304 65.7756 38.133 65.0195C38.4356 64.2634 38.7383 63.5074 38.7383 63.5074C38.7383 63.5074 39.9488 64.2635 40.5541 64.7171C41.1593 65.0196 42.2185 65.6244 42.8238 66.5317C43.5804 67.2878 44.0343 68.6488 44.0343 68.6488C44.0343 68.6488 43.7317 68.6488 43.4291 68.6488C43.1264 68.6488 42.5212 68.6488 41.9159 68.8C41.9159 68.8 41.9159 68.8 41.7646 68.8C41.6133 68.8 41.6133 68.8 41.462 68.8C41.462 68.8 41.462 68.8 41.3106 68.8C41.3106 68.8 41.3106 68.8 41.1593 68.8C41.1593 68.8 41.3107 70.7659 43.1264 72.7317C43.2778 72.883 43.2778 72.883 43.4291 73.0342C43.883 73.3366 44.337 73.7903 44.7909 74.0927C45.0935 74.2439 45.3962 74.5464 45.6988 74.6976C45.8501 74.6976 46.0014 74.6976 46.0014 74.6976C47.3633 74.6976 48.5738 73.6391 48.5738 72.4293V64.1122C48.8764 64.1122 49.3304 64.1122 49.633 64.1122C50.087 64.1122 50.3896 64.1122 50.6922 64.1122V72.5805C50.6922 73.7903 51.9028 74.8488 53.2646 74.8488C53.4159 74.8488 53.5672 74.8488 53.5672 74.8488C53.8699 74.6976 54.1725 74.5464 54.4751 74.2439C54.9291 73.9415 55.6856 73.3366 56.1396 72.883C57.8041 70.9171 58.1067 68.9513 58.1067 68.9513C58.1067 68.9513 58.1067 68.9513 57.9554 68.9513C57.9554 68.9513 57.9554 68.9513 57.8041 68.9513C57.6528 68.9513 57.6528 68.9513 57.5014 68.9513C57.5014 68.9513 57.5014 68.9513 57.3501 68.9513C56.7449 68.8 56.2909 68.8 55.837 68.8C55.383 68.8 55.2317 68.8 55.2317 68.8C55.2317 68.8 55.837 67.5903 56.4422 66.683C57.1988 65.9269 58.1067 65.322 58.712 64.8683C59.3172 64.5659 60.5278 63.6586 60.5278 63.6586C60.5278 63.6586 60.8304 64.4147 61.133 65.1708C61.7383 66.0781 62.3435 66.8342 62.4949 68.3464ZM45.3962 43.0927L37.2251 41.883V39.9171H48.4225V39.3122C46.9093 38.8586 45.8501 37.4976 45.8501 35.683C45.8501 33.5659 47.5146 31.9025 49.633 31.9025C51.7514 31.9025 53.4159 33.5659 53.4159 35.683C53.4159 37.3464 52.3567 38.7074 50.8435 39.3122V39.9171H62.0409V41.883L53.8699 43.0927H50.8435V47.9317C50.5409 48.083 50.087 48.3854 49.7843 48.5366C49.4817 48.3854 49.0278 48.083 48.7251 47.9317V43.0927H45.3962ZM48.4225 37.6488C48.4225 37.0439 48.8764 36.4391 49.4817 36.4391C50.087 36.4391 50.5409 36.8927 50.5409 37.4976C50.6922 37.3464 50.8435 37.1952 50.9949 37.1952C51.4488 36.7415 51.6001 36.1366 51.6001 35.5317C51.6001 34.9269 51.2975 34.322 50.9949 33.8683C50.5409 33.4147 49.9356 33.2635 49.3304 33.2635C48.7251 33.2635 48.1199 33.5659 47.6659 33.8683C47.212 34.322 47.0606 34.9269 47.0606 35.5317C47.0606 36.1366 47.3633 36.7415 47.6659 37.1952C48.1199 37.4976 48.2712 37.6488 48.4225 37.6488ZM50.3896 48.8391C50.5409 48.8391 50.5409 48.9903 50.6922 48.9903C51.6001 49.4439 52.508 49.8976 53.4159 50.3513C54.1725 50.0488 55.0804 49.5952 55.9883 49.2927C60.0738 47.0244 63.2514 45.2098 63.5541 45.0586C64.3106 44.6049 65.5212 43.8488 66.1264 43.2439C66.4291 42.9415 66.883 42.4878 67.337 42.1854C67.6396 41.7317 67.9422 41.4293 67.9422 41.4293L68.3962 40.9756H67.7909C67.7909 40.9756 67.337 40.9756 66.7317 41.1269C66.2778 41.2781 65.6725 41.4293 65.2185 41.4293C64.3106 41.7317 63.1001 42.1854 62.3435 42.6391C62.0409 42.7903 56.7449 45.5122 50.8435 48.5366C50.5409 48.6878 50.5409 48.8391 50.3896 48.8391ZM37.6791 62.7513C37.8304 62.7513 38.133 62.7513 38.2843 62.6C38.587 62.4488 38.7383 62.1464 38.8896 61.8439C39.0409 61.5415 38.8896 61.2391 38.7383 60.9366C38.587 60.483 38.133 60.3317 37.6791 60.3317C37.5278 60.3317 37.5278 60.3317 37.3764 60.3317L37.0738 59.8781V59.7269C37.6791 59.4244 39.6462 58.3659 42.2185 56.8537C41.3106 56.7025 40.5541 56.5513 39.7975 56.4C39.0409 56.0976 38.2843 55.7952 37.6791 55.4927L35.712 56.5513C35.5606 56.5513 35.5606 56.7025 35.4093 56.7025L35.1067 56.0976C35.258 55.9464 35.4093 55.7952 35.4093 55.4927C35.5606 55.1903 35.4093 54.8878 35.258 54.5854C35.1067 54.1317 34.6528 53.9805 34.1988 53.9805C34.0475 53.9805 33.7449 53.9805 33.5935 54.1317C33.2909 54.283 33.1396 54.5854 32.9883 54.8878C32.837 55.1903 32.9883 55.4927 33.1396 55.7952L34.0475 57.6098H33.8962C33.7449 57.6098 33.5935 57.6098 33.5935 57.761C33.4422 57.761 33.4422 57.9122 33.2909 58.0635C33.2909 58.0635 33.2909 58.0634 33.2909 58.2147H33.1396C32.9883 58.2147 32.837 58.2147 32.837 58.3659C32.6857 58.3659 32.6856 58.5171 32.5343 58.6683C32.5343 58.6683 32.5343 58.6683 32.5343 58.8195H32.383C32.2317 58.8195 32.0804 58.8195 32.0804 58.9708C31.9291 58.9708 31.9291 59.122 31.7778 59.2732C31.7778 59.2732 31.7778 59.2732 31.7778 59.4244H31.6264C31.4751 59.4244 31.3238 59.4244 31.3238 59.5756C31.1725 59.5756 31.1725 59.7269 31.0212 59.8781C31.0212 59.8781 31.0212 59.8781 31.0212 60.0293H30.8699C30.7185 60.0293 30.7185 60.0293 30.5672 60.1805C30.4159 60.1805 30.4159 60.3317 30.2646 60.483C30.2646 60.483 30.2646 60.483 30.2646 60.6342H30.1133C29.962 60.6342 29.962 60.6342 29.8107 60.7854C29.6593 60.7854 29.6593 60.9366 29.508 61.0878C29.508 61.0878 29.508 61.0878 29.508 61.2391H29.3567C29.2054 61.2391 29.2054 61.2391 29.0541 61.3903C28.9028 61.3903 28.9028 61.5415 28.7514 61.6927C28.7514 61.6927 28.7514 61.6927 28.7514 61.8439H28.6001C28.4488 61.8439 28.2975 61.9952 28.2975 61.9952C28.1462 61.9952 28.1462 62.1464 27.9949 62.1464C27.9949 62.1464 27.9949 62.1464 27.8435 62.1464C27.8435 62.1464 27.8435 62.1464 27.6922 62.1464C27.2383 62.1464 26.7843 62.2976 26.4817 62.7513C26.1791 63.0537 26.0278 63.5074 26.0278 63.961C26.0278 64.8683 26.7843 65.4732 27.6922 65.4732C27.6922 65.4732 27.6922 65.4732 27.8435 65.4732C28.4488 65.4732 28.9028 65.1708 29.2054 64.7171C29.3567 64.7171 29.3567 64.5659 29.508 64.4147H29.6593C29.8106 64.4147 29.8106 64.4147 29.962 64.2634C29.962 64.2634 30.1133 64.2635 30.1133 64.1122C30.2646 64.1122 30.2646 63.961 30.4159 63.8098H30.5672C30.7185 63.8098 30.7185 63.8098 30.8699 63.6586C30.8699 63.6586 31.0212 63.6586 31.0212 63.5074C31.1725 63.5074 31.1725 63.3561 31.3238 63.2049H31.4751C31.6264 63.2049 31.6264 63.2049 31.7778 63.0537C31.7778 63.0537 31.9291 63.0537 31.9291 62.9025C32.0804 62.9025 32.0804 62.7513 32.2317 62.6H32.383C32.5343 62.6 32.5343 62.6 32.6856 62.4488C32.6856 62.4488 32.837 62.4488 32.837 62.2976C32.9883 62.2976 32.9883 62.1464 33.1396 61.9952H33.2909C33.4422 61.9952 33.4422 61.9952 33.5935 61.9952C33.5935 61.9952 33.7449 61.9952 33.7449 61.8439C33.8962 61.8439 33.8962 61.6927 34.0475 61.5415H34.1988C34.3501 61.5415 34.3501 61.5415 34.5014 61.3903C34.5014 61.3903 34.6528 61.3903 34.6528 61.2391C34.8041 61.2391 34.8041 61.0878 34.9554 60.9366H35.1067C35.258 60.9366 35.258 60.9366 35.4093 60.7854C35.4093 60.7854 35.5606 60.7854 35.5606 60.6342C35.712 60.6342 35.712 60.483 35.8633 60.3317H36.0146C36.1659 60.3317 36.1659 60.3317 36.3172 60.1805C36.3172 60.1805 36.3172 60.1805 36.4685 60.1805L36.9225 60.9366L37.3764 61.8439C36.7712 62.4488 37.2251 62.7513 37.6791 62.7513ZM31.9291 42.1854C32.2317 42.4878 32.6856 42.9415 33.1396 43.2439C33.8962 43.8488 34.9554 44.6049 35.712 45.0586C36.0146 45.2098 38.587 46.5708 42.0672 48.5366C43.7317 48.8391 45.2449 49.2927 46.6067 49.8976C46.758 49.8976 46.9093 50.0488 47.0606 50.0488C47.212 50.0488 47.3633 50.2 47.5146 50.2C47.9685 50.5025 48.2712 50.6537 48.5738 50.9561C48.8764 51.2586 49.1791 51.4098 49.3304 51.7122C49.4817 51.7122 49.7843 51.7122 49.9356 51.7122C50.2383 51.7122 50.5409 51.7122 50.6922 51.8635C50.9949 51.561 51.7514 51.2586 52.508 50.8049C51.9028 50.5025 51.2975 50.2 50.6922 49.8976C50.3896 49.7464 49.9356 49.4439 49.633 49.2927C49.4817 49.2927 49.3304 49.1415 49.1791 49.1415C49.0278 49.1415 48.8764 48.9903 48.7251 48.9903C48.5738 48.9903 48.5738 48.8391 48.4225 48.8391C42.5212 45.8147 37.2251 43.0927 36.9225 42.9415C36.1659 42.4878 34.9554 42.0342 34.0475 41.7317C33.5935 41.5805 32.9883 41.4293 32.5343 41.4293C31.9291 41.2781 31.6264 41.2781 31.4751 41.2781H30.8699L31.3238 41.7317C31.1725 41.5805 31.4751 41.883 31.9291 42.1854ZM71.7251 61.0878C71.5738 61.0878 71.5738 61.0878 71.5738 61.0878C71.5738 60.9366 71.4225 60.9366 71.2712 60.9366C71.2712 60.9366 71.1199 60.7854 70.9685 60.7854H70.8172C70.8172 60.7854 70.8172 60.7854 70.8172 60.6342C70.6659 60.483 70.6659 60.483 70.5146 60.3317C70.3633 60.3317 70.3633 60.1805 70.212 60.1805H70.0606C70.0606 60.1805 70.0606 60.1805 70.0606 60.0293C69.9093 59.8781 69.9093 59.8781 69.758 59.7269C69.6067 59.7269 69.6067 59.5756 69.4554 59.5756H69.3041C69.3041 59.5756 69.3041 59.5756 69.3041 59.4244C69.1528 59.2732 69.1528 59.2732 69.0014 59.122C68.8501 59.122 68.8501 58.9708 68.6988 58.9708H68.5475C68.5475 58.9708 68.5475 58.9708 68.5475 58.8195C68.3962 58.6683 68.3962 58.6683 68.2449 58.5171C68.0935 58.5171 68.0935 58.3659 67.9422 58.3659H67.7909C67.7909 58.3659 67.7909 58.3659 67.7909 58.2147C67.6396 58.0634 67.6396 58.0635 67.4883 57.9122C67.337 57.9122 67.337 57.761 67.1857 57.761H67.0343C67.0343 57.761 67.0343 57.761 67.0343 57.6098C66.5804 58.2147 66.4291 58.0635 66.4291 58.0635C66.2778 58.0635 66.2778 57.9122 66.1264 57.9122H65.9751C65.9751 57.9122 65.9751 57.9122 65.9751 57.761C65.8238 57.6098 65.8238 57.6098 65.6725 57.4586C65.5212 57.4586 65.5212 57.3074 65.3699 57.3074H65.2185L66.1264 55.4927C66.2778 55.1903 66.2778 54.8878 66.2778 54.5854C66.1264 54.283 65.9751 53.9805 65.6725 53.8293C65.5212 53.6781 65.2185 53.6781 65.0672 53.6781C64.6133 53.6781 64.1593 53.9805 64.008 54.283C63.8567 54.5854 63.8567 54.8878 63.8567 55.1903C63.8567 55.3415 64.008 55.6439 64.1593 55.7952L63.7054 56.5513C63.7054 56.5513 63.5541 56.4 63.4028 56.4L60.8304 55.0391C60.2251 55.4927 59.4685 55.7952 58.4093 56.0976C58.4093 56.2488 58.4093 56.2488 58.4093 56.4C58.4093 56.7025 58.4093 57.0049 57.9554 57.4586C59.9225 58.5171 61.4356 59.4244 62.0409 59.7269V59.8781L61.8896 60.3317C61.7383 60.3317 61.7383 60.3317 61.587 60.3317C61.133 60.3317 60.6791 60.6342 60.5278 60.9366C60.3764 61.2391 60.3764 61.5415 60.3764 61.8439C60.5278 62.1464 60.6791 62.4488 60.9817 62.6C61.133 62.7513 61.4357 62.7513 61.587 62.7513C62.0409 62.7513 62.4949 62.4488 62.6462 62.1464L63.1001 61.2391L63.5541 60.483C63.5541 60.483 63.5541 60.483 63.7054 60.483C63.8567 60.483 63.8567 60.483 64.008 60.6342H64.1593C64.1593 60.7854 64.3106 60.7854 64.462 60.9366C64.462 60.9366 64.6133 60.9366 64.6133 61.0878C64.7646 61.0878 64.7646 61.0878 64.9159 61.2391H65.0672C65.0672 61.3903 65.2185 61.3903 65.3699 61.5415C65.3699 61.5415 65.5212 61.5415 65.5212 61.6927C65.6725 61.6927 65.6725 61.6927 65.8238 61.8439H65.9751C65.9751 61.9952 66.1264 61.9952 66.2778 62.1464C66.2778 62.1464 66.4291 62.1464 66.4291 62.2976C66.5804 62.2976 66.5804 62.2976 66.7317 62.2976H66.883C66.883 62.4488 67.0343 62.4488 67.1857 62.6C67.1857 62.6 67.337 62.6 67.337 62.7513C67.4883 62.7513 67.4883 62.7513 67.6396 62.9025H67.7909C67.7909 63.0537 67.9422 63.0537 68.0935 63.2049C68.0935 63.2049 68.2449 63.2049 68.2449 63.3561C68.3962 63.3561 68.3962 63.3561 68.5475 63.5074H68.6988C68.6988 63.6586 68.8501 63.6586 69.0014 63.8098C69.0014 63.8098 69.1528 63.8098 69.1528 63.961C69.3041 63.961 69.3041 63.961 69.4554 64.1122H69.6067C69.6067 64.2635 69.758 64.2635 69.9093 64.4147C69.9093 64.4147 70.0606 64.4147 70.0606 64.5659C70.212 64.5659 70.212 64.5659 70.3633 64.7171H70.5146C70.5146 64.8683 70.6659 64.8683 70.8172 65.0195C71.1199 65.4732 71.5738 65.7756 72.1791 65.7756C72.1791 65.7756 72.1791 65.7756 72.3304 65.7756C73.2383 65.7756 73.9949 65.0195 73.9949 64.2634C73.9949 63.8098 73.8435 63.3561 73.5409 63.0537C72.633 61.3903 72.1791 61.0878 71.7251 61.0878ZM37.6791 54.5854C37.8304 54.7366 37.9817 54.7366 38.133 54.7366C38.2843 54.7366 38.4356 54.8878 38.587 54.8878C39.0409 55.0391 39.4949 55.3415 40.1001 55.4927C41.3106 55.9464 42.5212 56.0976 43.5804 56.0976C43.7317 56.0976 43.7317 56.0976 43.883 56.0976C44.0343 56.0976 44.1856 56.0976 44.337 56.0976C44.6396 56.0976 44.9422 56.0976 45.2449 56.0976C45.5475 56.0976 45.6988 56.0976 45.6988 56.0976L46.0014 57.761L43.4291 61.2391C43.4291 61.2391 44.4883 63.0537 48.5738 63.3561C48.8764 63.3561 49.3304 63.3561 49.633 63.3561C50.087 63.3561 50.3896 63.3561 50.6922 63.3561C54.7778 63.0537 55.6856 61.2391 55.6856 61.2391L52.508 58.3659L53.1133 56.8537C52.962 56.8537 52.8107 56.8537 52.8107 56.8537C52.508 56.8537 52.2054 56.8537 52.0541 57.0049C51.9028 57.0049 51.9028 57.0049 51.9028 57.0049H51.7514L51.9028 56.8537C52.0541 56.8537 52.2054 56.7025 52.3567 56.5513C52.8106 56.4 53.2646 56.2488 53.5672 56.2488C53.7185 56.2488 53.7185 56.2488 53.7185 56.2488C53.8699 56.2488 54.0212 56.4 54.3238 56.4C54.4751 56.5513 54.7778 56.5513 55.0804 56.7025C55.0804 56.7025 55.0804 56.7025 55.2317 56.7025C55.5343 56.7025 55.6856 56.7025 55.6856 56.7025C55.837 56.7025 55.9883 56.7025 56.4422 56.7025C56.4422 56.7025 56.5935 56.7025 56.7449 56.7025C57.8041 56.7025 57.8041 57.1561 57.8041 57.1561C57.9554 57.1561 57.9554 57.0049 58.1067 57.0049C58.4093 56.7025 58.4093 56.4 58.4093 56.2488C58.4093 56.0976 58.258 55.9464 58.258 55.9464C58.1067 55.7952 57.9554 55.6439 57.8041 55.6439C57.6528 55.4927 57.5014 55.4927 57.5014 55.4927C57.8041 54.7366 55.6856 54.4342 54.9291 54.283C54.3238 54.1317 53.1133 53.6781 52.2054 53.2244C51.9028 53.0732 51.6001 52.922 51.4488 52.922C51.2975 52.922 51.2975 52.7708 51.2975 52.7708H51.1462C50.9949 52.7708 50.6922 52.6196 50.5409 52.6196C50.3896 52.6196 50.2383 52.6196 50.087 52.6196C49.7843 52.6196 49.633 52.7708 49.633 52.7708C49.633 52.7708 49.4817 52.6195 49.1791 52.1659L49.0278 52.0147C48.7251 51.7122 48.1199 51.2586 47.3633 50.8049C47.212 50.8049 47.0606 50.6537 46.9093 50.6537C46.758 50.6537 46.6067 50.5025 46.4554 50.5025C46.1528 50.3513 45.8501 50.3513 45.5475 50.2C45.0935 50.0488 44.4883 49.8976 43.883 49.7464C43.4291 49.5952 42.9751 49.5952 42.5212 49.4439C41.462 49.2927 40.4028 49.1415 39.1922 48.9903C37.9817 48.8391 36.9225 48.8391 35.8633 48.8391C29.2054 48.8391 25.8764 50.5025 25.8764 50.5025C25.8764 50.5025 29.2054 50.9561 32.6856 51.8635C34.6528 52.4683 36.0146 53.6781 37.6791 54.5854ZM61.4356 48.6878C59.6199 48.8391 57.8041 49.2927 56.2909 49.8976C55.5343 50.2 54.9291 50.5025 54.3238 50.8049C54.1725 50.8049 54.0212 50.9561 53.8699 50.9561C53.7185 50.9561 53.5672 51.1074 53.4159 51.1074C52.3567 51.7122 51.4488 52.1659 51.1462 52.4683H51.2975C51.6001 52.6195 53.7185 53.2244 54.4751 53.3756C54.6264 53.3756 54.7778 53.3756 54.7778 53.5269C56.1396 53.8293 57.0475 53.9805 57.5014 54.7366C57.5014 54.7366 57.5014 54.8878 57.6528 54.8878C57.8041 55.0391 57.9554 55.0391 58.1067 55.3415C59.0146 55.1903 59.6199 54.8878 60.0738 54.5854C60.2251 54.4342 60.3764 54.4342 60.3764 54.283C60.5278 54.1317 60.6791 54.1317 60.6791 53.9805C61.4356 53.3756 62.0409 52.7708 63.4028 52.3171C67.337 50.6537 73.9949 49.8976 73.9949 49.8976C73.9949 49.8976 68.0935 48.5366 62.9488 48.5366C62.3435 48.6878 61.8896 48.6878 61.4356 48.6878ZM50.8435 3.01955C50.8435 3.32199 50.8435 3.47321 50.6922 3.62443C51.1462 3.77565 51.6001 4.2293 52.0541 4.53174V1.50735C51.6001 1.80979 51.1462 2.11223 50.6922 2.41467C50.8435 2.56589 50.8435 2.86833 50.8435 3.01955ZM49.633 1.80979C49.9356 1.80979 50.087 1.80979 50.2383 1.96101C50.3896 1.50735 50.8435 1.0537 51.1462 0.600037H48.1199C48.4225 1.0537 48.7251 1.50735 49.0278 1.96101C49.1791 1.80979 49.3304 1.80979 49.633 1.80979ZM48.4225 3.01955C48.4225 2.71711 48.4225 2.56589 48.5738 2.41467C48.1199 2.26345 47.6659 1.80979 47.212 1.50735V4.53174C47.6659 4.2293 48.1199 3.92687 48.5738 3.62443C48.4225 3.47321 48.4225 3.32199 48.4225 3.01955ZM51.1462 5.43906C50.8435 4.9854 50.5409 4.53174 50.2383 4.07809C50.087 4.2293 49.7843 4.22931 49.633 4.22931C49.3304 4.22931 49.1791 4.2293 49.0278 4.07809C48.7251 4.53174 48.4225 5.13662 48.1199 5.43906H51.1462ZM49.633 3.92687C49.7843 3.92687 49.9356 3.92687 50.087 3.77565C50.2383 3.77565 50.2383 3.62443 50.3896 3.47321C50.5409 3.32199 50.5409 3.17077 50.5409 3.01955C50.5409 2.86833 50.5409 2.71711 50.3896 2.56589C50.3896 2.41467 50.2383 2.41467 50.087 2.26345C49.9356 2.11223 49.7843 2.11223 49.633 2.11223C49.4817 2.11223 49.3304 2.11223 49.1791 2.26345C49.0278 2.26345 49.0278 2.41467 48.8764 2.56589C48.7251 2.71711 48.7251 2.86833 48.7251 3.01955C48.7251 3.17077 48.7251 3.32199 48.8764 3.47321C48.8764 3.62443 49.0278 3.62443 49.1791 3.77565C49.1791 3.92687 49.4817 3.92687 49.633 3.92687ZM50.3896 9.97565C50.3896 9.82443 50.2383 9.82443 50.087 9.67321C49.9356 9.67321 49.7843 9.67321 49.633 9.67321C49.4817 9.67321 49.3304 9.67321 49.1791 9.82443C49.0278 9.82443 49.0278 9.97565 48.8764 10.1269C48.7251 10.2781 48.7251 10.4293 48.7251 10.5805C48.7251 10.7317 48.7251 10.883 48.8764 11.0342C48.8764 11.1854 49.0278 11.1854 49.1791 11.3366C49.3304 11.4878 49.4817 11.4878 49.633 11.4878C49.7843 11.4878 49.9356 11.4878 50.087 11.3366C50.2383 11.3366 50.2383 11.1854 50.3896 11.0342C50.5409 10.883 50.5409 10.7317 50.5409 10.5805C50.5409 10.2781 50.5409 10.1269 50.3896 9.97565ZM50.087 11.7903C49.9356 11.6391 49.7843 11.6391 49.633 11.6391C49.4817 11.6391 49.3304 11.6391 49.1791 11.7903C49.0278 11.7903 49.0278 11.9415 48.8764 12.0927C48.7251 12.2439 48.7251 12.3952 48.7251 12.5464C48.7251 12.6976 48.7251 12.8488 48.8764 13C48.8764 13.1513 49.0278 13.1513 49.1791 13.3025C49.3304 13.4537 49.4817 13.4537 49.633 13.4537C49.7843 13.4537 49.9356 13.4537 50.087 13.3025C50.2383 13.3025 50.2383 13.1513 50.3896 13C50.5409 12.8488 50.5409 12.6976 50.5409 12.5464C50.5409 12.3952 50.5409 12.2439 50.3896 12.0927C50.2383 11.9415 50.2383 11.7903 50.087 11.7903ZM49.0278 15.2683C49.1791 15.4195 49.3304 15.4195 49.4817 15.4195C49.633 15.4195 49.7843 15.4195 49.9356 15.2683C50.087 15.2683 50.087 15.1171 50.2383 14.9659C50.3896 14.8147 50.3896 14.6635 50.3896 14.5122C50.3896 14.361 50.3896 14.2098 50.2383 14.0586C50.2383 13.9074 50.087 13.9074 49.9356 13.7561C49.7843 13.6049 49.633 13.6049 49.4817 13.6049C49.3304 13.6049 49.1791 13.6049 49.0278 13.7561C48.8764 13.7561 48.8764 13.9074 48.7251 14.0586C48.5738 14.2098 48.5738 14.361 48.5738 14.5122C48.5738 14.6635 48.5738 14.8147 48.7251 14.9659C48.8764 15.1171 49.0278 15.1171 49.0278 15.2683ZM37.6791 21.3171C37.8304 21.1659 37.8304 21.0147 37.8304 20.8635C37.8304 20.7122 37.8304 20.561 37.6791 20.4098C37.6791 20.2586 37.5278 20.2586 37.3764 20.1074C37.2251 19.9561 37.0738 19.9561 36.9225 19.9561C36.7712 19.9561 36.6199 19.9561 36.4685 20.1074C36.3172 20.1074 36.3172 20.2586 36.1659 20.4098C36.0146 20.561 36.0146 20.7122 36.0146 20.8635C36.0146 21.0147 36.0146 21.1659 36.1659 21.3171C36.1659 21.4683 36.3172 21.4683 36.4685 21.6195C36.6199 21.7708 36.7712 21.7708 36.9225 21.7708C37.0738 21.7708 37.2251 21.7708 37.3764 21.6195C37.5278 21.4683 37.6791 21.3171 37.6791 21.3171ZM49.633 17.6878C49.4817 17.6878 49.3304 17.6878 49.1791 17.8391C49.0278 17.8391 49.0278 17.9903 48.8764 18.1415C48.7251 18.2927 48.7251 18.4439 48.7251 18.5952C48.7251 18.7464 48.7251 18.8976 48.8764 19.0488C48.8764 19.2 49.0278 19.2 49.1791 19.3513C49.3304 19.5025 49.4817 19.5025 49.633 19.5025C49.7843 19.5025 49.9356 19.5025 50.087 19.3513C50.2383 19.3513 50.2383 19.2 50.3896 19.0488C50.5409 18.8976 50.5409 18.7464 50.5409 18.5952C50.5409 18.4439 50.5409 18.2927 50.3896 18.1415C50.3896 17.9903 50.2383 17.9903 50.087 17.8391C49.9356 17.6878 49.7843 17.6878 49.633 17.6878ZM49.633 9.52199C50.6922 9.52199 51.6001 8.61467 51.6001 7.55613C51.6001 6.4976 50.6922 5.59028 49.633 5.59028C48.5738 5.59028 47.6659 6.4976 47.6659 7.55613C47.5146 8.61467 48.4225 9.52199 49.633 9.52199ZM36.4685 17.3854L37.3764 17.083C37.3764 16.9317 37.2251 16.6293 37.0738 16.3269C36.3172 14.2098 35.712 12.2439 37.5278 10.7317C38.2843 9.97565 39.1922 9.67321 40.2514 9.67321C41.008 9.67321 41.9159 9.97565 42.8238 10.2781C44.6396 10.7317 46.0014 11.1854 48.2712 11.1854V10.2781C46.1528 10.2781 44.9422 9.97565 43.1264 9.37077C42.0672 9.06833 41.008 8.76589 40.2514 8.76589C39.1922 8.76589 37.8304 9.21955 36.9225 9.97565C34.0475 12.3952 36.0146 15.8732 36.4685 17.3854ZM46.4554 20.4098C46.9093 19.9561 47.8172 19.5025 48.4225 19.2C48.4225 19.0488 48.2712 18.8976 48.2712 18.7464C48.2712 18.4439 48.2712 18.1415 48.4225 17.8391C47.8172 17.6878 46.9093 16.9317 46.4554 16.6293V20.4098ZM52.6593 20.4098V16.6293C52.2054 17.083 51.2975 17.6878 50.6922 17.8391C50.6922 17.9903 50.8435 18.1415 50.8435 18.2927C50.8435 18.5952 50.8435 18.8976 50.6922 19.2C51.2975 19.5025 52.2054 20.1074 52.6593 20.4098ZM48.8764 17.5366C49.0278 17.5366 49.1791 17.3854 49.3304 17.3854C49.4817 17.3854 49.4817 17.3854 49.633 17.3854C49.9356 17.3854 50.087 17.3854 50.2383 17.5366C50.3896 16.9317 50.9949 16.0244 51.4488 15.5708H47.6659C48.1199 16.0244 48.7251 16.9317 48.8764 17.5366ZM36.6199 19.5025C36.7712 19.5025 36.7712 19.5025 36.9225 19.5025C37.0738 19.5025 37.2251 19.5025 37.3764 19.6537C37.5278 19.0488 38.133 17.6878 38.4356 17.083L36.0146 17.8391L36.6199 19.5025ZM37.8304 19.9561C37.9817 20.1074 38.133 20.2586 38.133 20.561C38.133 20.8635 38.133 21.0147 38.133 21.1659C38.7383 21.3171 39.6462 21.6195 39.9488 21.922L39.3435 18.2927C39.0409 18.7464 38.4356 19.5025 37.8304 19.9561ZM45.6988 9.21955C45.8501 9.37077 46.0014 9.52199 46.1528 9.52199C46.3041 9.52199 46.4554 9.67321 46.758 9.52199C46.9093 9.52199 47.0606 9.52199 47.0606 9.37077C47.212 9.21955 47.3633 9.06833 47.3633 8.91711C47.3633 8.76589 47.5146 8.61467 47.3633 8.31223C47.3633 8.16101 47.3633 8.00979 47.212 8.00979C47.212 8.16101 47.0606 8.00979 46.9093 7.85857C46.758 7.85857 46.6067 7.70735 46.3041 7.85857C46.1528 7.85857 46.0014 7.85857 46.0014 8.00979C45.8501 8.16101 45.6988 8.31223 45.6988 8.46345C45.6988 8.61467 45.5475 8.76589 45.6988 9.06833C45.6988 9.06833 45.6988 9.21955 45.6988 9.21955ZM43.7317 8.91711C43.883 9.06833 44.0343 9.06833 44.1857 9.21955C44.337 9.21955 44.4883 9.21955 44.4883 9.21955C44.6396 9.21955 44.7909 9.06833 44.9422 8.91711C45.0935 8.76589 45.0935 8.61467 45.2449 8.46345C45.2449 8.31223 45.2449 8.16101 45.2449 8.16101C45.2449 8.00979 45.0935 7.85857 44.9422 7.70735C44.7909 7.55613 44.6396 7.55613 44.4883 7.40491C44.337 7.40491 44.1857 7.40491 44.1857 7.40491C44.0343 7.40491 43.883 7.55613 43.7317 7.70735C43.5804 7.85857 43.5804 8.00979 43.4291 8.16101C43.4291 8.31223 43.4291 8.46345 43.4291 8.46345C43.5804 8.61467 43.5804 8.76589 43.7317 8.91711ZM41.7646 8.16101C41.9159 8.31223 42.0672 8.31223 42.2185 8.31223C42.3699 8.31223 42.5212 8.31223 42.5212 8.31223C42.6725 8.31223 42.8238 8.16101 42.9751 8.00979C43.1264 7.85857 43.1264 7.70735 43.1264 7.55613C43.1264 7.40491 43.1264 7.2537 43.1264 7.2537C43.1264 7.10248 42.9751 6.95126 42.8238 6.80004C42.6725 6.64882 42.5212 6.64882 42.3699 6.64882C42.2185 6.64882 42.0672 6.64882 42.0672 6.64882C41.9159 6.64882 41.7646 6.80004 41.6133 6.95126C41.462 7.10248 41.462 7.2537 41.462 7.40491C41.462 7.55613 41.462 7.70735 41.462 7.70735C41.462 8.00979 41.6133 8.16101 41.7646 8.16101ZM39.3435 7.85857C39.4949 8.00979 39.6462 8.16101 39.7975 8.16101C39.9488 8.16101 40.1001 8.16101 40.4028 8.16101C40.5541 8.16101 40.5541 8.00979 40.7054 8.00979C40.8567 7.85857 40.8567 7.70735 41.008 7.55613C41.008 7.40491 41.008 7.25369 41.008 6.95126C40.8567 6.80004 40.8567 6.64882 40.7054 6.64882C40.5541 6.4976 40.4028 6.34638 40.2514 6.34638C40.1001 6.34638 39.9488 6.34638 39.6462 6.34638C39.4949 6.34638 39.4949 6.4976 39.3435 6.4976C39.3435 6.64882 39.1922 6.80004 39.1922 6.95126C39.1922 7.10248 39.1922 7.25369 39.1922 7.55613C39.1922 7.70735 39.1922 7.70735 39.3435 7.85857ZM37.3764 8.46345C37.5278 8.61467 37.6791 8.61467 37.8304 8.61467C37.9817 8.61467 38.133 8.61467 38.2843 8.46345C38.4356 8.46345 38.4356 8.31223 38.587 8.16101C38.7383 8.00979 38.7383 7.85857 38.7383 7.70735C38.7383 7.55613 38.7383 7.40491 38.587 7.2537C38.587 7.10248 38.4356 7.10248 38.2843 6.95126C38.133 6.80004 37.9817 6.80004 37.8304 6.80004C37.6791 6.80004 37.5278 6.80004 37.3764 6.95126C37.2251 6.95126 37.2251 7.10248 37.0738 7.2537C36.9225 7.40491 36.9225 7.55613 36.9225 7.70735C36.9225 7.85857 36.9225 8.00979 37.0738 8.16101C37.2251 8.31223 37.2251 8.46345 37.3764 8.46345ZM35.258 9.67321C35.4093 9.67321 35.4093 9.82443 35.5606 9.82443C35.712 9.82443 35.8633 9.82443 36.1659 9.82443C36.3172 9.82443 36.4685 9.67321 36.6199 9.52199C36.6199 9.37077 36.7712 9.37077 36.7712 9.21955C36.7712 9.06833 36.7712 8.91711 36.7712 8.61467C36.7712 8.46345 36.6199 8.31223 36.4685 8.16101C36.3172 8.16101 36.3172 8.00979 36.1659 8.00979C36.0146 8.00979 35.8633 8.00979 35.5606 8.00979C35.4093 8.00979 35.258 8.16101 35.1067 8.31223C35.1067 8.46345 34.9554 8.46345 34.9554 8.61467C34.9554 8.76589 34.9554 8.91711 34.9554 9.21955C35.1067 9.52199 35.1067 9.67321 35.258 9.67321ZM34.1988 11.6391C34.3501 11.6391 34.5014 11.6391 34.5014 11.6391C34.6528 11.6391 34.8041 11.4878 34.9554 11.3366C35.1067 11.1854 35.258 11.0342 35.258 10.883C35.258 10.7317 35.258 10.5805 35.258 10.5805C35.258 10.4293 35.1067 10.2781 34.9554 10.1269C34.8041 9.97565 34.6528 9.82443 34.5014 9.82443C34.3501 9.82443 34.1988 9.82443 34.1988 9.82443C34.0475 9.82443 33.8962 9.97565 33.7449 10.1269C33.5935 10.2781 33.4422 10.4293 33.4422 10.5805C33.4422 10.7317 33.4422 10.883 33.4422 10.883C33.4422 11.0342 33.5935 11.1854 33.7449 11.3366C33.8962 11.4878 34.0475 11.6391 34.1988 11.6391ZM32.9883 13.3025C33.1396 13.4537 33.2909 13.6049 33.4422 13.6049C33.5935 13.7561 33.7449 13.7561 34.0475 13.6049C34.1988 13.6049 34.3501 13.6049 34.3501 13.4537C34.5014 13.3025 34.6528 13.1513 34.6528 13C34.8041 13 34.8041 12.8488 34.8041 12.6976C34.8041 12.5464 34.8041 12.3952 34.6528 12.3952C34.5014 12.2439 34.3501 12.0927 34.1988 12.0927C34.0475 11.9415 33.8962 11.9415 33.5935 12.0927C33.4422 12.0927 33.2909 12.0927 33.2909 12.2439C33.1396 12.3952 32.9883 12.5464 32.9883 12.6976C32.837 12.8488 32.837 13 32.9883 13.3025C32.9883 13.1513 32.9883 13.3025 32.9883 13.3025ZM34.6528 14.361C34.5014 14.2098 34.3501 14.2098 34.1988 14.2098C34.0475 14.2098 33.8962 14.2098 33.7449 14.361C33.5935 14.361 33.5935 14.5122 33.4422 14.6635C33.2909 14.8147 33.2909 14.9659 33.2909 15.1171C33.2909 15.2683 33.2909 15.4195 33.4422 15.5708C33.4422 15.722 33.5935 15.722 33.7449 15.8732C33.8962 16.0244 34.0475 16.0244 34.1988 16.0244C34.3501 16.0244 34.5014 16.0244 34.6528 15.8732C34.8041 15.8732 34.8041 15.722 34.9554 15.5708C35.1067 15.4195 35.1067 15.2683 35.1067 15.1171C35.1067 14.9659 35.1067 14.8147 34.9554 14.5122C34.8041 14.5122 34.8041 14.361 34.6528 14.361ZM35.4093 16.3269C35.258 16.1756 35.1067 16.1756 34.9554 16.1756C34.8041 16.1756 34.6528 16.1756 34.5014 16.3269C34.3501 16.3269 34.3501 16.4781 34.1988 16.6293C34.0475 16.7805 34.0475 16.9317 34.0475 17.083C34.0475 17.2342 34.0475 17.3854 34.1988 17.5366C34.1988 17.6878 34.3501 17.6878 34.5014 17.8391C34.6528 17.9903 34.8041 17.9903 34.9554 17.9903C35.1067 17.9903 35.258 17.9903 35.4093 17.8391C35.5606 17.8391 35.5606 17.6878 35.712 17.5366C35.8633 17.3854 35.8633 17.2342 35.8633 17.083C35.8633 16.9317 35.8633 16.7805 35.712 16.6293C35.5606 16.4781 35.4093 16.4781 35.4093 16.3269ZM62.7975 19.9561C62.6462 19.8049 62.4949 19.8049 62.3435 19.8049C62.1922 19.8049 62.0409 19.8049 61.8896 19.9561C61.7383 19.9561 61.7383 20.1074 61.587 20.2586C61.4357 20.4098 61.4356 20.561 61.4356 20.7122C61.4356 20.8635 61.4357 21.0147 61.587 21.1659C61.587 21.3171 61.7383 21.3171 61.8896 21.4683C62.0409 21.6195 62.1922 21.6195 62.3435 21.6195C62.4949 21.6195 62.6462 21.6195 62.7975 21.4683C62.9488 21.4683 62.9488 21.3171 63.1001 21.1659C63.2514 21.0147 63.2514 20.8635 63.2514 20.7122C63.2514 20.561 63.2514 20.4098 63.1001 20.2586C62.9488 20.1074 62.9488 20.1074 62.7975 19.9561ZM56.1396 9.21955C54.3238 9.82443 53.1133 10.1269 50.9949 10.1269V11.0342C53.2646 11.0342 54.4751 10.5805 56.4422 9.97565C57.1988 9.82443 58.258 9.67321 59.0146 9.67321C59.9225 9.67321 60.9817 10.1269 61.7383 10.7317C63.5541 12.2439 62.9488 14.361 62.1922 16.3269C62.0409 16.6293 62.0409 16.7805 61.8896 17.083L62.7975 17.3854C63.2514 15.8732 65.2185 12.3952 62.3435 9.97565C61.4357 9.21955 60.0738 8.76589 59.0146 8.76589C58.1067 8.61467 57.0475 8.91711 56.1396 9.21955ZM61.7383 19.5025C61.8896 19.5025 62.0409 19.3513 62.1922 19.3513C62.3435 19.3513 62.3435 19.3513 62.4949 19.3513L63.2514 17.6878L60.8304 16.9317C61.133 17.6878 61.587 18.8976 61.7383 19.5025ZM59.1659 21.922C59.6199 21.6195 60.5278 21.1659 60.9817 21.1659C60.9817 21.0147 60.8304 20.7122 60.9817 20.561C60.9817 20.2586 61.133 20.1074 61.2843 19.9561C60.8304 19.6537 60.0738 18.8976 59.9225 18.2927L59.1659 21.922ZM51.7514 8.61467C51.7514 8.76589 51.7514 8.91711 51.7514 9.21955C51.7514 9.37077 51.9028 9.52199 52.0541 9.67321C52.2054 9.67321 52.3567 9.67321 52.508 9.67321C52.6593 9.67321 52.8106 9.67321 53.1133 9.67321C53.2646 9.67321 53.4159 9.52199 53.5672 9.37077C53.5672 9.21955 53.7185 9.21955 53.7185 9.06833C53.7185 8.91711 53.7185 8.76589 53.7185 8.46345C53.7185 8.31223 53.5672 8.16101 53.4159 8.00979C53.2646 8.00979 53.2646 7.85857 53.1133 7.85857C52.962 7.85857 52.8107 7.85857 52.508 7.85857C52.3567 7.85857 52.2054 8.00979 52.0541 8.16101C51.9028 8.31223 51.7514 8.46345 51.7514 8.61467ZM54.6264 9.21955C54.7778 9.21955 54.9291 9.21955 54.9291 9.21955C55.0804 9.21955 55.2317 9.06833 55.383 8.91711C55.5343 8.76589 55.6856 8.61467 55.6856 8.46345C55.6856 8.31223 55.6856 8.16101 55.6856 8.16101C55.6856 8.00979 55.5343 7.85857 55.383 7.70735C55.2317 7.55613 55.0804 7.40491 54.9291 7.40491C54.7778 7.40491 54.6264 7.40491 54.6264 7.40491C54.4751 7.40491 54.3238 7.55613 54.1725 7.70735C54.0212 7.85857 53.8699 8.00979 53.8699 8.16101C53.8699 8.31223 53.8699 8.46345 53.8699 8.46345C53.8699 8.61467 54.0212 8.76589 54.1725 8.91711C54.3238 9.06833 54.4751 9.06833 54.6264 9.21955ZM56.4422 8.31223C56.5935 8.31223 56.7449 8.31223 56.7449 8.31223C56.8962 8.31223 57.0475 8.31223 57.1988 8.16101C57.5014 8.16101 57.6528 8.00979 57.8041 7.85857C57.8041 7.70735 57.8041 7.55613 57.9554 7.55613C57.9554 7.40491 57.9554 7.2537 57.8041 7.10248C57.5014 6.80004 57.3501 6.64882 57.1988 6.64882C57.0475 6.64882 56.8962 6.64882 56.8962 6.64882C56.7449 6.64882 56.5935 6.64882 56.4422 6.80004C56.2909 6.95126 56.1396 7.10248 56.1396 7.2537C56.1396 7.40491 56.1396 7.55613 56.1396 7.55613C56.1396 7.70735 56.1396 7.85857 56.2909 8.00979C56.1396 8.16101 56.2909 8.16101 56.4422 8.31223ZM58.5607 8.00979C58.712 8.16101 58.712 8.16101 58.8633 8.16101C59.0146 8.16101 59.1659 8.16101 59.4685 8.16101C59.6199 8.16101 59.7712 8.00979 59.9225 7.85857C60.0738 7.70735 60.0738 7.70735 60.0738 7.55613C60.0738 7.40491 60.0738 7.25369 60.0738 6.95126C60.0738 6.64882 59.9225 6.64882 59.7712 6.4976C59.6199 6.34638 59.6199 6.34638 59.4685 6.34638C59.3172 6.34638 59.1659 6.34638 58.8633 6.34638C58.712 6.34638 58.5606 6.4976 58.4093 6.64882C58.258 6.80004 58.258 6.80004 58.258 6.95126C58.258 7.10248 58.258 7.25369 58.258 7.55613C58.258 7.85857 58.4093 7.85857 58.5607 8.00979ZM60.8304 8.46345C60.9817 8.61467 61.133 8.61467 61.2843 8.61467C61.4356 8.61467 61.587 8.61467 61.7383 8.46345C61.8896 8.46345 61.8896 8.31223 62.0409 8.16101C62.1922 8.00979 62.1922 7.85857 62.1922 7.70735C62.1922 7.55613 62.1922 7.40491 62.0409 7.2537C62.0409 7.10248 61.8896 7.10248 61.7383 6.95126C61.587 6.80004 61.4356 6.80004 61.2843 6.80004C61.133 6.80004 60.9817 6.80004 60.8304 6.95126C60.6791 6.95126 60.6791 7.10248 60.5278 7.2537C60.3764 7.40491 60.3764 7.55613 60.3764 7.70735C60.3764 7.85857 60.3764 8.00979 60.5278 8.16101C60.5278 8.31223 60.6791 8.46345 60.8304 8.46345ZM62.6462 9.37077C62.7975 9.52199 62.9488 9.67321 63.1001 9.67321C63.2514 9.67321 63.4028 9.82443 63.7054 9.67321C63.8567 9.67321 64.008 9.67321 64.008 9.52199C64.1593 9.37077 64.3106 9.21955 64.3106 9.06833C64.3106 8.91711 64.462 8.76589 64.3106 8.46345C64.3106 8.31223 64.3107 8.16101 64.1593 8.16101C64.008 8.00979 63.8567 7.85857 63.7054 7.85857C63.5541 7.85857 63.4028 7.70735 63.1001 7.85857C62.9488 7.85857 62.7975 7.85857 62.7975 8.00979C62.6462 8.16101 62.4949 8.31223 62.4949 8.46345C62.4949 8.61467 62.3435 8.76589 62.4949 9.06833C62.4949 9.21955 62.4949 9.37077 62.6462 9.37077ZM63.8567 10.5805C63.8567 10.7317 63.8567 10.883 63.8567 10.883C63.8567 11.0342 64.008 11.1854 64.1593 11.3366C64.3107 11.4878 64.462 11.4878 64.6133 11.6391C64.7646 11.6391 64.9159 11.6391 64.9159 11.6391C65.0672 11.6391 65.2185 11.4878 65.3699 11.3366C65.5212 11.1854 65.5212 11.0342 65.6725 10.883C65.6725 10.7317 65.6725 10.5805 65.6725 10.5805C65.6725 10.4293 65.5212 10.2781 65.3699 10.1269C65.2185 9.97565 65.0672 9.97565 64.9159 9.82443C64.7646 9.82443 64.6133 9.82443 64.6133 9.82443C64.462 9.82443 64.3107 9.97565 64.1593 10.1269C64.008 10.1269 63.8567 10.4293 63.8567 10.5805ZM64.9159 11.9415C64.7646 12.0927 64.6133 12.0927 64.462 12.2439C64.462 12.3952 64.3106 12.3952 64.3106 12.5464C64.3106 12.6976 64.3106 12.8488 64.3106 13.1513C64.462 13.3025 64.462 13.4537 64.6133 13.6049C64.7646 13.6049 64.7646 13.7561 64.9159 13.7561C65.0672 13.7561 65.2185 13.7561 65.5212 13.7561C65.6725 13.6049 65.8238 13.6049 65.9751 13.4537C65.9751 13.3025 66.1264 13.3025 66.1264 13.1513C66.1264 13 66.1264 12.8488 66.1264 12.5464C65.9751 12.3952 65.9751 12.2439 65.8238 12.0927C65.6725 12.0927 65.6725 11.9415 65.5212 11.9415C65.3699 11.9415 65.0672 11.9415 64.9159 11.9415ZM65.0672 16.0244C65.2185 16.0244 65.3699 15.8732 65.5212 15.8732C65.6725 15.8732 65.6725 15.722 65.8238 15.5708C65.9751 15.4195 65.9751 15.2683 65.9751 15.1171C65.9751 14.9659 65.8238 14.8147 65.8238 14.6635C65.8238 14.5122 65.6725 14.5122 65.5212 14.361C65.3699 14.2098 65.2185 14.0586 65.0672 14.2098C64.9159 14.2098 64.7646 14.361 64.6133 14.361C64.462 14.361 64.462 14.5122 64.3106 14.6635C64.1593 14.8147 64.1593 14.9659 64.1593 15.2683C64.1593 15.4195 64.3106 15.5708 64.3106 15.722C64.3106 15.8732 64.462 15.8732 64.6133 16.0244C64.7646 16.0244 64.9159 16.0244 65.0672 16.0244ZM63.5541 16.6293C63.4028 16.7805 63.4028 16.9317 63.4028 17.083C63.4028 17.2342 63.4028 17.3854 63.5541 17.5366C63.5541 17.6878 63.7054 17.6878 63.8567 17.8391C64.008 17.9903 64.1593 17.9903 64.3106 17.9903C64.462 17.9903 64.6133 17.9903 64.7646 17.8391C64.9159 17.8391 64.9159 17.6878 65.0672 17.5366C65.2185 17.3854 65.2185 17.2342 65.2185 17.083C65.2185 16.9317 65.2185 16.7805 65.0672 16.6293C65.0672 16.4781 64.9159 16.4781 64.7646 16.3269C64.6133 16.1756 64.462 16.1756 64.3106 16.1756C64.1593 16.1756 64.008 16.1756 63.8567 16.3269C63.7054 16.4781 63.7054 16.4781 63.5541 16.6293Z" fill="white"/>
</g>
<defs>
<clipPath id="clip0_634_1801">
<rect width="230" height="186" fill="white" transform="translate(0 0.600037)"/>
</clipPath>
</defs>
</svg>
